PathFileType	4	(X/Y/Z)	C:/Users/beibeiliu/ov580/test_trc/User3\sequence.5_training_dense_left.trc
DataRate	CameraRate	NumFrames	NumMarkers	Units	OrigDataRate	OrigDataStartFrame	OrigNumFrames
120	120	17	19	mm	120	96	119
Frame#	Time	ThumbCMC			ThumbMCP			ThumbIP			ThumbTip			IndexMCP			IndexPIP			IndexTip			MiddleMCP			MiddlePIP			MiddleTip			RingMCP			RingPIP			RingTip			PinkyMCP			PinkyPIP			PinkyTip			BackHand1			BackHand2			BackHand3	
		X0	Y0	Z0	X1	Y1	Z1	X2	Y2	Z2	X3	Y3	Z3	X4	Y4	Z4	X5	Y5	Z5	X6	Y6	Z6	X7	Y7	Z7	X8	Y8	Z8	X9	Y9	Z9	X10	Y10	Z10	X11	Y11	Z11	X12	Y12	Z12	X13	Y13	Z13	X14	Y14	Z14	X15	Y15	Z15	X16	Y16	Z16	X17	Y17	Z17	X18	Y18	Z18	
95	0.791667	-195.894	17.3701	-6.18944	-184.967	8.15705	-38.8488	-196.873	6.5114	-70.0789	-217.834	-1.99097	-83.0297	-216.42	43.3661	-76.2781	-213.947	13.2875	-83.3126	-211.565	12.8365	-49.0906	-238.522	35.2789	-76.7717	-229.417	6.24297	-83.0978	-227.662	2.57714	-41.1556	-254.506	23.1144	-67.3364	-246.784	-2.84301	-66.9127	-237.867	-1.68181	-34.1983	-269.434	16.7541	-54.8286	-254.005	-10.2341	-51.387	-245.249	-3.28234	-24.5636	-255.699	47.1466	-13.4677	-249.832	34.0331	16.9366	-217.968	47.9812	-0.631292	
96	0.8	-187.239	4.49139	-10.5484	-181.739	-8.38264	-41.5537	-189.921	-18.2073	-74.012	-217.021	-20.7078	-79.2232	-205.467	22.2681	-79.7818	-202.503	-9.76288	-84.8374	-202.785	-4.32265	-49.6989	-228.547	17.6333	-78.0956	-226.194	-15.6871	-79.455	-220.633	-11.8483	-42.1021	-242.659	9.14009	-71.3651	-238.892	-20.3708	-63.6803	-231.645	-11.0607	-32.9966	-257.896	3.25285	-60.0549	-248.322	-20.5271	-50.1917	-243.885	-11.3238	-22.844	-244.178	39.1841	-20.7449	-242.61	34.8496	9.80524	-205.805	35.3557	-6.45425	
97	0.808333	-182.514	-8.99557	-8.26087	-175.633	-28.0208	-36.9068	-186.735	-39.1012	-62.6344	-215.431	-41.9199	-74.0333	-196.714	1.31979	-79.2538	-197.531	-33.9529	-78.7522	-195.138	-21.5138	-46.5098	-223.343	-4.3175	-78.5281	-219.166	-37.4743	-72.8283	-212.595	-24.8803	-36.889	-237.105	-10.2829	-69.7757	-237.272	-37.7016	-57.4643	-226.832	-24.3369	-27.888	-252.604	-12.9722	-58.0135	-241.821	-36.0734	-44.781	-236.239	-20.8499	-18.0446	-232.848	28.2888	-25.4222	-234.884	24.4011	9.67386	-201.762	24.3429	-13.2431	
98	0.816667	-172.511	-19.4609	-3.7543	-166.129	-45.2363	-29.5194	-180.235	-59.4102	-58.0526	-207.108	-60.2961	-62.2178	-191.915	-20.3994	-75.1701	-191.187	-53.4321	-69.0548	-188.918	-39.3062	-39.9427	-214.146	-25.3977	-75.0333	-210.661	-55.5359	-67.3643	-206.276	-35.8547	-29.4873	-231.107	-29.9849	-64.215	-230.303	-54.164	-49.6112	-218.515	-39.3776	-22.0769	-244.706	-30.2007	-52.4031	-234.333	-50.1051	-36.6342	-228.73	-30.8901	-11.3226	-228.023	13.9603	-27.4002	-229.577	16.0559	7.98335	-192.643	12.0938	-9.45237	
99	0.825	-168.182	-25.7348	-1.44982	-158.059	-53.0439	-22.3826	-166.16	-73.7204	-43.3662	-194.115	-79.5469	-49.8802	-181.866	-40.7941	-69.2087	-178.813	-69.7654	-58.9368	-178.984	-49.5998	-29.371	-203.319	-43.9501	-67.2401	-196.404	-72.5758	-50.4572	-194.667	-45.6215	-19.8364	-220.104	-51.2101	-56.011	-212.524	-70.7989	-36.8101	-204.397	-49.6874	-12.348	-232.696	-46.4366	-45.4022	-222.999	-65.5659	-26.4981	-218.186	-44.5972	-6.0034	-224.327	1.12688	-25.5509	-223.379	6.35037	4.8167	-190.586	6.32871	-8.53556	
100	0.833333	-161.225	-25.4299	10.2455	-143.198	-55.4073	-10.4126	-148.892	-78.9742	-27.7525	-175.021	-91.8463	-35.7901	-166.199	-51.4869	-58.5141	-160.17	-78.6303	-44.1964	-166.798	-54.0867	-17.9285	-186.386	-64.9409	-57.5713	-177.175	-84.6823	-36.1375	-179.304	-52.1653	-9.82073	-202.633	-65.2372	-46.2027	-192.23	-82.8437	-23.4117	-191.614	-55.1287	-0.186893	-218.994	-69.1651	-34.163	-203.224	-77.3472	-13.2379	-203.981	-52.9305	5.48168	-218.571	-15.174	-25.4048	-219.329	-3.68006	8.20882	-184.682	-2.67364	-8.39517	
101	0.841667	-153.253	-18.5256	8.63007	-134.063	-43.5224	0.0455458	-132.549	-70.9461	-14.8303	-151.462	-89.3835	-19.8569	-148.752	-54.2106	-49.7868	-135.99	-74.2534	-30.4797	-153.35	-49.0984	-8.86388	-166.807	-67.4416	-46.5723	-154.047	-82.9734	-18.9446	-167.223	-53.6902	-0.999927	-180.159	-75.6015	-35.7954	-169.973	-83.8904	-5.9645	-175.446	-55.9453	8.9252	-196.347	-80.5781	-23.9856	-180.26	-80.8398	-2.69488	-188.832	-54.2725	14.8322	-211.478	-27.0148	-24.389	-218.888	-16.0348	2.7813	-183.55	-3.86895	-13.3705	
102	0.85	-153.307	-1.26225	8.55618	-123.662	-21.198	0.959644	-114.042	-47.619	-6.98332	-127.595	-72.4254	-9.3128	-130.797	-41.7889	-44.6471	-116.459	-51.7499	-19.5179	-139.665	-34.7669	-3.92268	-145.823	-62.3871	-39.2745	-126.688	-64.0872	-12.3976	-152.623	-39.1713	4.56257	-159.542	-71.4286	-26.3473	-144.061	-69.3423	1.26747	-161.661	-44.8799	15.1496	-171.821	-75.9361	-16.9783	-156.303	-68.2606	6.57516	-173.89	-47.2077	20.8517	-203.597	-35.9672	-23.576	-213.87	-20.0838	1.06788	-188.091	-3.86068	-14.9986	
103	0.858333	-163.861	16.8955	5.22069	-130.231	13.8334	-1.25683	-105.94	-6.31502	-8.15681	-108.687	-36.4431	-9.07669	-127.498	-15.2959	-45.2233	-109.618	-16.6401	-18.2521	-139.41	-5.32151	-6.11603	-131.217	-36.0949	-38.5645	-114.825	-32.0274	-9.65248	-144.008	-15.8881	4.43793	-138.545	-47.3963	-25.7336	-125.51	-40.8016	1.35415	-152.522	-22.5507	14.6624	-147.255	-58.8259	-13.9638	-137.744	-43.9602	8.51313	-161.965	-28.0759	21.3767	-193.375	-34.2426	-22.6945	-210.754	-22.7137	0.415164	-192.62	1.13541	-16.9031	
104	0.866667	-180.352	36.2642	1.98831	-146.756	45.4308	-9.6449	-116.714	37.8666	-16.9853	-106.323	8.01251	-17.0575	-133.451	19.0504	-50.5684	-115.977	22.8388	-23.3404	-147.325	18.5953	-10.402	-128.246	-4.22938	-42.2079	-112.558	7.88372	-16.2929	-151.149	9.21017	-0.906462	-126.535	-16.9081	-28.3293	-117.273	-5.08925	-4.58743	-148.637	2.89335	10.9527	-135.733	-30.8016	-17.5464	-126.89	-13.3968	4.3552	-153.441	-10.202	20.3622	-186.536	-27.2233	-23.7386	-208.777	-23.5734	4.18775	-199.243	11.247	-16.8289	
105	0.875	-194.487	41.7604	-4.78553	-171.437	64.5277	-16.0129	-142.305	64.8421	-28.3567	-122.966	51.8419	-26.7102	-152.222	43.0428	-57.8367	-131.985	54.0389	-37.3231	-159.251	41.5276	-15.5499	-138.66	26.9711	-51.0644	-124.426	42.5655	-26.6234	-158.126	29.0046	-6.75254	-132.716	9.85919	-37.3195	-123.444	30.2931	-11.5479	-153.763	22.2468	5.14293	-126.033	-2.56755	-21.9896	-123.637	16.4663	-1.78197	-149.879	12.484	11.075	-180.26	-15.8405	-23.5042	-198.319	-19.9436	4.87159	-200.273	7.50701	-19.5279	
106	0.883333	-211.039	37.5105	-6.66187	-197.496	65.5131	-23.5861	-168.841	72.3026	-40.451	-141.974	59.7486	-39.0543	-170.469	44.6704	-67.4831	-158.588	67.3855	-50.2962	-172.689	53.6325	-23.0124	-150.692	36.4354	-60.3507	-145.02	56.5738	-38.7057	-166.494	30.9751	-15.0147	-141.171	23.8884	-46.7925	-133.743	45.0285	-25.5115	-155.389	31.2081	-4.07876	-130.791	19.7478	-32.9428	-129.458	35.9984	-11.4979	-152.216	17.9515	5.75171	-170.164	-16.3498	-23.2396	-185.204	-22.2763	8.99597	-205.746	0.665925	-16.7153	
107	0.891667	-219.454	17.0269	-4.44822	-216.232	36.366	-36.0014	-191.784	42.3563	-50.7686	-164.492	40.4498	-55.1195	-192.724	23.7772	-72.9881	-182.528	55.4447	-67.2332	-188.32	58.3878	-34.042	-170.005	24.275	-69.921	-167.266	49.8641	-51.9368	-176.735	28.6933	-24.1386	-154.061	18.492	-57.0666	-148.433	42.4848	-40.9883	-168.382	28.0104	-15.3685	-142.162	15.279	-45.4663	-144.482	36.3659	-29.8198	-158.145	19.8361	-7.4489	-170.078	-25.6008	-22.6249	-179.119	-28.2435	10.7154	-207.711	-17.7712	-14.5609	
108	0.9	-228.009	-3.02968	-0.262976	-230.259	4.23404	-33.131	-210.651	7.03133	-57.5626	-184.475	6.58211	-58.3849	-212.453	-5.75477	-74.1061	-204.671	26.7408	-76.3732	-209.459	36.5826	-42.2544	-191.978	-4.34848	-75.8911	-186.336	26.7246	-65.0553	-192.784	17.0148	-28.7364	-171.038	-4.2743	-65.7147	-166.653	20.8196	-54.4293	-180.417	9.11469	-24.3229	-157.075	-6.55861	-53.351	-158.835	18.2433	-40.1615	-169.544	7.69452	-16.2575	-182.099	-43.9826	-19.8553	-183.75	-42.76	11.9977	-213.292	-34.6876	-8.23896	
109	0.908333	-237.034	-22.6411	4.30502	-247.964	-20.7883	-28.1146	-228.585	-25.7297	-52.1355	-199.74	-29.4525	-53.4355	-230.77	-40.4871	-67.2148	-226.994	-13.1992	-78.2379	-225.079	5.488	-50.9681	-212.328	-43.7454	-67.306	-206.714	-8.75877	-72.4997	-203.822	-3.40686	-36.0235	-192.309	-41.2576	-63.2833	-187.937	-11.3409	-57.7978	-193.118	-14.8356	-27.8286	-174.05	-38.9346	-55.1187	-179.733	-12.7857	-48.5915	-182.023	-16.7522	-18.312	-193.777	-65.5517	-6.84622	-192.926	-58.5591	23.7315	-226.316	-54.3577	7.73095	
110	0.916667	-251.778	-36.177	17.0301	-265.918	-43.8084	-17.6044	-252.644	-55.441	-42.4707	-226.626	-60.122	-42.7059	-256.96	-74.4082	-50.9756	-248.153	-48.8681	-70.0307	-242.56	-25.9001	-50.7585	-237.424	-76.6392	-56.7289	-227.96	-46.7843	-67.8785	-223.389	-30.6604	-29.8585	-217.938	-77.1516	-52.0266	-209.94	-48.4243	-57.1168	-211.386	-43.1002	-23.4092	-199.333	-75.201	-45.322	-199.056	-48.7254	-47.7061	-201.589	-44.2072	-19.7824	-211.706	-88.6114	7.03165	-204.952	-74.9739	34.9344	-242.88	-71.0293	22.8072	
111	0.925	-263.451	-45.4456	25.2491	-280.669	-48.4223	-0.728836	-282.915	-64.5106	-27.8366	-260.097	-77.0283	-39.3294	-282.254	-91.3392	-33.7422	-273.781	-74.2744	-59.4739	-258.42	-47.2489	-43.3196	-264.351	-98.011	-41.1382	-250.993	-74.1639	-57.7015	-239.178	-52.8967	-24.501	-240.226	-100.069	-37.7227	-229.605	-74.561	-48.0796	-229.397	-62.6805	-16.5907	-220.299	-103.187	-30.7543	-217.136	-76.4786	-42.583	-216.941	-62.4474	-10.4278	-237.255	-104.412	18.4436	-223.908	-85.9308	45.6153	-255.635	-78.8197	36.2123	
